<svg xmlns="http://www.w3.org/2000/svg" width="360" height="360" viewBox="0 0 360 360">
  <g id="グループ_72" data-name="グループ 72" transform="translate(-3778 -3933)">
    <circle id="楕円形_7" data-name="楕円形 7" cx="180" cy="180" r="180" transform="translate(3778 3933)" fill="#fff"/>
    <g id="logo" transform="translate(3788 3943)">
      <g id="a">
        <circle id="楕円形_7-2" data-name="楕円形 7" cx="170" cy="170" r="170"/>
        <g id="グループ_61" data-name="グループ 61" transform="translate(9.883 125.091)">
          <path id="パス_59" data-name="パス 59" d="M11.45,99.989a31.729,31.729,0,0,0-.507,5.941c0,10.164,5.575,15.486,16.218,15.486,6.56,0,11.037-1.746,15.232-6.082l4.843,4.083c-5.068,5.688-11.262,8.165-20.441,8.165-15.373,0-23.285-7.067-23.285-20.441A57.852,57.852,0,0,1,4.5,97.483L5.481,91.8C8.691,72.593,17.5,63.78,33.5,63.78c14.134,0,21.427,6.814,21.427,20.075a60.291,60.291,0,0,1-1.492,12.9H12.069l-.619,3.21Zm35.927-9.038a40.145,40.145,0,0,0,.507-6.7q0-14.486-14.134-14.5c-11.037,0-18.47,7.433-20.582,20.441l-.113.732H47.377Z" transform="translate(-3.51 -37.792)" fill="#fff"/>
          <path id="パス_60" data-name="パス 60" d="M37.488,64.9h5.828l-.732,7.687C46.808,66.644,52.608,63.8,60.661,63.8c9.179,0,15.12,3.717,17.231,10.784C81.862,67.4,88.422,63.8,97.461,63.8c11.657,0,18.217,5.828,18.217,16.105a55.78,55.78,0,0,1-1.351,11.657L108.244,126.5h-7.433l6.082-34.829c1.126-5.828,1.126-6.194,1.126-8.925,0-8.053-4.083-12.389-11.769-12.389-10.784,0-16.471,7.18-19.568,24.918L71.107,126.5H63.673l6.194-35.054a47,47,0,0,0,.985-8.306c0-8.419-3.97-12.755-11.769-12.755-10.784,0-16.471,7.18-19.568,24.918l-5.462,31.225H26.62l10.9-61.577Z" transform="translate(25.578 -37.756)" fill="#fff"/>
          <path id="パス_61" data-name="パス 61" d="M91.821,115.221c3.829,4.336,9.179,6.194,17.344,6.194,11.882,0,18.583-5.068,18.583-13.881,0-2.985-1.126-5.209-3.21-6.448-2.478-1.492-4.083-1.858-11.4-2.985s-10.53-2.224-13.261-4.589c-2.59-2.112-4.083-5.687-4.083-9.911a21.176,21.176,0,0,1,5.828-14.5c3.717-3.6,8.925-5.321,15.739-5.321,10.277,0,17.344,2.985,21.314,8.925l-6.082,3.463c-3.6-4.336-7.94-6.194-14.866-6.194-8.785,0-14.5,5.068-14.5,13.008,0,5.462,2.731,7.321,13.008,8.785,14.613,2.224,18.949,5.688,18.949,15.232,0,13.374-9.038,20.582-26.016,20.582-11.4,0-19.568-2.985-23.285-8.559l5.941-3.829Z" transform="translate(105.296 -37.792)" fill="#fff"/>
          <path id="パス_62" data-name="パス 62" d="M119.526,81.692h7.321L116.063,143.27H108.63Zm4.7-27.142h7.433L129.55,66.432h-7.433Z" transform="translate(139.716 -54.55)" fill="#fff"/>
          <path id="パス_63" data-name="パス 63" d="M162,119.426c-5.068,5.575-11.516,8.165-20.188,8.165-13.881,0-21.568-7.067-21.568-20.075a66.743,66.743,0,0,1,.873-9.545l1.126-5.688c1.746-10.024,3.97-15.486,8.165-20.329,4.589-5.462,11.262-8.165,19.568-8.165,9.545,0,15.852,3.21,18.836,9.658L162.5,76.291c-2.844-4.589-6.194-6.307-12.276-6.307-11.657,0-17.964,7.067-20.807,23.285l-1.126,6.448a30.248,30.248,0,0,0-.619,6.814c0,9.8,4.955,14.754,14.754,14.754a19.32,19.32,0,0,0,14.754-5.941l4.843,4.083Z" transform="translate(151.425 -37.774)" fill="#fff"/>
        </g>
        <circle id="楕円形_8" data-name="楕円形 8" cx="66.617" cy="66.617" r="66.617" transform="translate(103.383 103.383)" fill="#fff"/>
      </g>
    </g>
  </g>
</svg>
